ffmpeg started on 2025-05-19 at 12:16:50
Report written to "D:\Convert\FFMetrics\reports\ssim_report-6.txt"
Log level: 32
Command line:
ffmpeg -hide_banner -nostdin -i "G:\\\xc0\xed\xe8\xec\xe5\\\xce\xed\xe3\xee\xe8\xed\xe3\xe8\\!_30_\xc2\xe5\xf1\xed\xe0_2023\\DreamCast\\\xd2\xe5\xed\xfc \xeb\xfe\xe1\xe2\xe8 \xe2 \xf2\xe0\xe9\xed\xee\xe9 \xea\xee\xec\xed\xe0\xf2\xe5\\[DC] Aiyou de Mishi - 05_Telegram_HEVC.mkv" -i "G:\\\xc0\xed\xe8\xec\xe5\\\xce\xed\xe3\xee\xe8\xed\xe3\xe8\\!_30_\xc2\xe5\xf1\xed\xe0_2023\\DreamCast\\\xd2\xe5\xed\xfc \xeb\xfe\xe1\xe2\xe8 \xe2 \xf2\xe0\xe9\xed\xee\xe9 \xea\xee\xec\xed\xe0\xf2\xe5\\[DC] Aiyou de Mishi - 05_Telegram.mp4" -lavfi "[0:v]settb=AVTB,setpts=PTS-STARTPTS,format=pix_fmts=yuv420p10,fps=24/1,scale=1920:1080:flags=bicubic[main];[1:v]settb=AVTB,setpts=PTS-STARTPTS,format=pix_fmts=yuv420p,fps=24/1,scale=1920:1080:flags=bicubic[ref];[main][ref]ssim=eof_action=endall:stats_file='D\\:/Convert/FFMetrics/logs/ssim_logfile-6.txt'" -f null -
Input #0, matroska,webm, from 'G:\Аниме\Онгоинги\!_30_Весна_2023\DreamCast\Тень любви в тайной комнате\[DC] Aiyou de Mishi - 05_Telegram_HEVC.mkv':
  Metadata:
    COMPATIBLE_BRANDS: isomiso2avc1mp41
    MAJOR_BRAND     : isom
    MINOR_VERSION   : 512
    ENCODER         : Lavf61.7.100
  Duration: 00:16:51.50, start: -0.021000, bitrate: 1252 kb/s
  Stream #0:0: Video: hevc (Main 10), yuv420p10le(tv, bt709, progressive), 1920x1080 [SAR 1:1 DAR 16:9], 24 fps, 24 tbr, 1k tbn (default)
      Metadata:
        HANDLER_NAME    : VideoHandler
        VENDOR_ID       : [0][0][0][0]
        ENCODER         : Lavc61.19.100 libx265
        BPS             : 1052097
        DURATION        : 00:16:51.374666666
        NUMBER_OF_FRAMES: 24273
        NUMBER_OF_BYTES : 133008031
        _STATISTICS_WRITING_APP: mkvpropedit v66.0.0 ('Josie') 64-bit
        _STATISTICS_WRITING_DATE_UTC: 2025-05-19 07:31:18
        _STATISTICS_TAGS: BPS DURATION NUMBER_OF_FRAMES NUMBER_OF_BYTES
  Stream #0:1: Audio: aac (LC), 48000 Hz, stereo, fltp (default)
      Metadata:
        HANDLER_NAME    : SoundHandler
        VENDOR_ID       : [0][0][0][0]
        ENCODER         : Lavc61.19.100 aac
        BPS             : 196079
        DURATION        : 00:16:51.477000000
        NUMBER_OF_FRAMES: 47414
        NUMBER_OF_BYTES : 24791242
        _STATISTICS_WRITING_APP: mkvpropedit v66.0.0 ('Josie') 64-bit
        _STATISTICS_WRITING_DATE_UTC: 2025-05-19 07:31:18
        _STATISTICS_TAGS: BPS DURATION NUMBER_OF_FRAMES NUMBER_OF_BYTES
Input #1, mov,mp4,m4a,3gp,3g2,mj2, from 'G:\Аниме\Онгоинги\!_30_Весна_2023\DreamCast\Тень любви в тайной комнате\[DC] Aiyou de Mishi - 05_Telegram.mp4':
  Metadata:
    major_brand     : isom
    minor_version   : 512
    compatible_brands: isomiso2avc1mp41
    encoder         : Lavf60.4.101
  Duration: 00:16:51.47, start: 0.000000, bitrate: 3154 kb/s
  Stream #1:0[0x1](und): Video: h264 (Main) (avc1 / 0x31637661), yuv420p(tv, bt709, progressive), 1920x1080 [SAR 1:1 DAR 16:9], 2953 kb/s, 24 fps, 24 tbr, 12288 tbn (default)
      Metadata:
        handler_name    : VideoHandler
        vendor_id       : [0][0][0][0]
        encoder         : Lavc60.9.100 h264_qsv
  Stream #1:1[0x2](und): Audio: aac (LC) (mp4a / 0x6134706D), 48000 Hz, stereo, fltp, 196 kb/s (default)
      Metadata:
        handler_name    : SoundHandler
        vendor_id       : [0][0][0][0]
Stream mapping:
  Stream #0:0 (hevc) -> settb:default
  Stream #1:0 (h264) -> settb:default
  ssim:default -> Stream #0:0 (wrapped_avframe)
  Stream #0:1 -> #0:1 (aac (native) -> pcm_s16le (native))
Output #0, null, to 'pipe:':
  Metadata:
    COMPATIBLE_BRANDS: isomiso2avc1mp41
    MAJOR_BRAND     : isom
    MINOR_VERSION   : 512
    encoder         : Lavf61.7.100
  Stream #0:0: Video: wrapped_avframe, yuv420p10le(tv, bt709, progressive), 1920x1080 [SAR 1:1 DAR 16:9], q=2-31, 200 kb/s, 24 fps, 24 tbn
      Metadata:
        encoder         : Lavc61.19.100 wrapped_avframe
  Stream #0:1: Audio: pcm_s16le, 48000 Hz, stereo, s16, 1536 kb/s (default)
      Metadata:
        HANDLER_NAME    : SoundHandler
        VENDOR_ID       : [0][0][0][0]
        _STATISTICS_TAGS: BPS DURATION NUMBER_OF_FRAMES NUMBER_OF_BYTES
        BPS             : 196079
        DURATION        : 00:16:51.477000000
        NUMBER_OF_FRAMES: 47414
        NUMBER_OF_BYTES : 24791242
        _STATISTICS_WRITING_APP: mkvpropedit v66.0.0 ('Josie') 64-bit
        _STATISTICS_WRITING_DATE_UTC: 2025-05-19 07:31:18
        encoder         : Lavc61.19.100 pcm_s16le
frame=  176 fps=0.0 q=-0.0 size=N/A time=00:00:07.33 bitrate=N/A speed=14.3x    frame=  351 fps=344 q=-0.0 size=N/A time=00:00:14.62 bitrate=N/A speed=14.3x    frame=  611 fps=396 q=-0.0 size=N/A time=00:00:25.45 bitrate=N/A speed=16.5x    frame=  840 fps=409 q=-0.0 size=N/A time=00:00:35.00 bitrate=N/A speed=  17x    frame= 1085 fps=421 q=-0.0 size=N/A time=00:00:45.20 bitrate=N/A speed=17.5x    frame= 1295 fps=420 q=-0.0 size=N/A time=00:00:53.95 bitrate=N/A speed=17.5x    frame= 1502 fps=416 q=-0.0 size=N/A time=00:01:02.58 bitrate=N/A speed=17.3x    frame= 1689 fps=410 q=-0.0 size=N/A time=00:01:10.37 bitrate=N/A speed=17.1x    frame= 1818 fps=392 q=-0.0 size=N/A time=00:01:15.75 bitrate=N/A speed=16.3x    frame= 2020 fps=392 q=-0.0 size=N/A time=00:01:24.16 bitrate=N/A speed=16.3x    frame= 2197 fps=388 q=-0.0 size=N/A time=00:01:31.54 bitrate=N/A speed=16.2x    frame= 2353 fps=380 q=-0.0 size=N/A time=00:01:38.04 bitrate=N/A speed=15.8x    frame= 2494 fps=372 q=-0.0 size=N/A time=00:01:43.91 bitrate=N/A speed=15.5x    frame= 2722 fps=377 q=-0.0 size=N/A time=00:01:53.41 bitrate=N/A speed=15.7x    frame= 2931 fps=379 q=-0.0 size=N/A time=00:02:02.12 bitrate=N/A speed=15.8x    frame= 3102 fps=375 q=-0.0 size=N/A time=00:02:09.25 bitrate=N/A speed=15.6x    frame= 3253 fps=370 q=-0.0 size=N/A time=00:02:15.54 bitrate=N/A speed=15.4x    frame= 3493 fps=376 q=-0.0 size=N/A time=00:02:25.54 bitrate=N/A speed=15.7x    frame= 3739 fps=381 q=-0.0 size=N/A time=00:02:35.79 bitrate=N/A speed=15.9x    frame= 3967 fps=384 q=-0.0 size=N/A time=00:02:45.29 bitrate=N/A speed=  16x    frame= 4183 fps=386 q=-0.0 size=N/A time=00:02:54.29 bitrate=N/A speed=16.1x    frame= 4387 fps=386 q=-0.0 size=N/A time=00:03:02.79 bitrate=N/A speed=16.1x    frame= 4573 fps=385 q=-0.0 size=N/A time=00:03:10.54 bitrate=N/A speed=16.1x    frame= 4782 fps=386 q=-0.0 size=N/A time=00:03:19.25 bitrate=N/A speed=16.1x    frame= 4948 fps=383 q=-0.0 size=N/A time=00:03:26.16 bitrate=N/A speed=  16x    frame= 5147 fps=384 q=-0.0 size=N/A time=00:03:34.45 bitrate=N/A speed=  16x    frame= 5354 fps=384 q=-0.0 size=N/A time=00:03:43.08 bitrate=N/A speed=  16x    frame= 5587 fps=387 q=-0.0 size=N/A time=00:03:52.79 bitrate=N/A speed=16.1x    frame= 5791 fps=387 q=-0.0 size=N/A time=00:04:01.29 bitrate=N/A speed=16.1x    frame= 6018 fps=389 q=-0.0 size=N/A time=00:04:10.75 bitrate=N/A speed=16.2x    frame= 6234 fps=390 q=-0.0 size=N/A time=00:04:19.75 bitrate=N/A speed=16.2x    frame= 6472 fps=392 q=-0.0 size=N/A time=00:04:29.66 bitrate=N/A speed=16.3x    frame= 6678 fps=392 q=-0.0 size=N/A time=00:04:38.25 bitrate=N/A speed=16.3x    frame= 6891 fps=393 q=-0.0 size=N/A time=00:04:47.12 bitrate=N/A speed=16.4x    frame= 7082 fps=392 q=-0.0 size=N/A time=00:04:55.08 bitrate=N/A speed=16.3x    frame= 7309 fps=394 q=-0.0 size=N/A time=00:05:04.54 bitrate=N/A speed=16.4x    frame= 7537 fps=395 q=-0.0 size=N/A time=00:05:14.04 bitrate=N/A speed=16.4x    frame= 7748 fps=395 q=-0.0 size=N/A time=00:05:22.83 bitrate=N/A speed=16.5x    frame= 7952 fps=395 q=-0.0 size=N/A time=00:05:31.33 bitrate=N/A speed=16.5x    frame= 8146 fps=395 q=-0.0 size=N/A time=00:05:39.41 bitrate=N/A speed=16.4x    frame= 8351 fps=395 q=-0.0 size=N/A time=00:05:47.95 bitrate=N/A speed=16.5x    frame= 8572 fps=396 q=-0.0 size=N/A time=00:05:57.16 bitrate=N/A speed=16.5x    frame= 8794 fps=396 q=-0.0 size=N/A time=00:06:06.41 bitrate=N/A speed=16.5x    frame= 9038 fps=398 q=-0.0 size=N/A time=00:06:16.58 bitrate=N/A speed=16.6x    frame= 9254 fps=399 q=-0.0 size=N/A time=00:06:25.58 bitrate=N/A speed=16.6x    frame= 9487 fps=400 q=-0.0 size=N/A time=00:06:35.29 bitrate=N/A speed=16.6x    frame= 9720 fps=401 q=-0.0 size=N/A time=00:06:45.00 bitrate=N/A speed=16.7x    frame= 9951 fps=402 q=-0.0 size=N/A time=00:06:54.62 bitrate=N/A speed=16.7x    frame=10204 fps=403 q=-0.0 size=N/A time=00:07:05.16 bitrate=N/A speed=16.8x    frame=10457 fps=405 q=-0.0 size=N/A time=00:07:15.70 bitrate=N/A speed=16.9x    frame=10696 fps=406 q=-0.0 size=N/A time=00:07:25.66 bitrate=N/A speed=16.9x    frame=10936 fps=407 q=-0.0 size=N/A time=00:07:35.66 bitrate=N/A speed=  17x    frame=11187 fps=409 q=-0.0 size=N/A time=00:07:46.12 bitrate=N/A speed=  17x    frame=11439 fps=410 q=-0.0 size=N/A time=00:07:56.62 bitrate=N/A speed=17.1x    frame=11674 fps=411 q=-0.0 size=N/A time=00:08:06.41 bitrate=N/A speed=17.1x    frame=11911 fps=412 q=-0.0 size=N/A time=00:08:16.29 bitrate=N/A speed=17.2x    frame=12161 fps=413 q=-0.0 size=N/A time=00:08:26.70 bitrate=N/A speed=17.2x    frame=12419 fps=415 q=-0.0 size=N/A time=00:08:37.45 bitrate=N/A speed=17.3x    frame=12698 fps=417 q=-0.0 size=N/A time=00:08:49.08 bitrate=N/A speed=17.4x    frame=12980 fps=419 q=-0.0 size=N/A time=00:09:00.83 bitrate=N/A speed=17.5x    frame=13217 fps=420 q=-0.0 size=N/A time=00:09:10.70 bitrate=N/A speed=17.5x    frame=13478 fps=421 q=-0.0 size=N/A time=00:09:21.58 bitrate=N/A speed=17.5x    frame=13731 fps=422 q=-0.0 size=N/A time=00:09:32.12 bitrate=N/A speed=17.6x    frame=13983 fps=423 q=-0.0 size=N/A time=00:09:42.62 bitrate=N/A speed=17.6x    frame=14218 fps=424 q=-0.0 size=N/A time=00:09:52.41 bitrate=N/A speed=17.7x    frame=14500 fps=426 q=-0.0 size=N/A time=00:10:04.16 bitrate=N/A speed=17.7x    frame=14763 fps=427 q=-0.0 size=N/A time=00:10:15.12 bitrate=N/A speed=17.8x    frame=15043 fps=428 q=-0.0 size=N/A time=00:10:26.79 bitrate=N/A speed=17.9x    frame=15271 fps=429 q=-0.0 size=N/A time=00:10:36.29 bitrate=N/A speed=17.9x    frame=15542 fps=430 q=-0.0 size=N/A time=00:10:47.58 bitrate=N/A speed=17.9x    frame=15806 fps=431 q=-0.0 size=N/A time=00:10:58.58 bitrate=N/A speed=  18x    frame=16073 fps=432 q=-0.0 size=N/A time=00:11:09.70 bitrate=N/A speed=  18x    frame=16342 fps=434 q=-0.0 size=N/A time=00:11:20.91 bitrate=N/A speed=18.1x    frame=16624 fps=435 q=-0.0 size=N/A time=00:11:32.66 bitrate=N/A speed=18.1x    frame=16887 fps=436 q=-0.0 size=N/A time=00:11:43.62 bitrate=N/A speed=18.2x    frame=17170 fps=438 q=-0.0 size=N/A time=00:11:55.41 bitrate=N/A speed=18.2x    frame=17458 fps=439 q=-0.0 size=N/A time=00:12:07.41 bitrate=N/A speed=18.3x    frame=17703 fps=440 q=-0.0 size=N/A time=00:12:17.62 bitrate=N/A speed=18.3x    frame=17963 fps=441 q=-0.0 size=N/A time=00:12:28.45 bitrate=N/A speed=18.4x    frame=18236 fps=442 q=-0.0 size=N/A time=00:12:39.83 bitrate=N/A speed=18.4x    frame=18489 fps=442 q=-0.0 size=N/A time=00:12:50.37 bitrate=N/A speed=18.4x    frame=18753 fps=443 q=-0.0 size=N/A time=00:13:01.37 bitrate=N/A speed=18.5x    frame=19024 fps=444 q=-0.0 size=N/A time=00:13:12.66 bitrate=N/A speed=18.5x    frame=19266 fps=444 q=-0.0 size=N/A time=00:13:22.75 bitrate=N/A speed=18.5x    frame=19542 fps=445 q=-0.0 size=N/A time=00:13:34.25 bitrate=N/A speed=18.6x    frame=19755 fps=445 q=-0.0 size=N/A time=00:13:43.12 bitrate=N/A speed=18.5x    frame=19967 fps=445 q=-0.0 size=N/A time=00:13:51.95 bitrate=N/A speed=18.5x    frame=20187 fps=445 q=-0.0 size=N/A time=00:14:01.16 bitrate=N/A speed=18.5x    frame=20434 fps=445 q=-0.0 size=N/A time=00:14:11.41 bitrate=N/A speed=18.5x    frame=20627 fps=444 q=-0.0 size=N/A time=00:14:19.45 bitrate=N/A speed=18.5x    frame=20815 fps=443 q=-0.0 size=N/A time=00:14:27.29 bitrate=N/A speed=18.5x    frame=21062 fps=444 q=-0.0 size=N/A time=00:14:37.58 bitrate=N/A speed=18.5x    frame=21292 fps=444 q=-0.0 size=N/A time=00:14:47.16 bitrate=N/A speed=18.5x    frame=21542 fps=444 q=-0.0 size=N/A time=00:14:57.58 bitrate=N/A speed=18.5x    frame=21777 fps=444 q=-0.0 size=N/A time=00:15:07.37 bitrate=N/A speed=18.5x    frame=22045 fps=445 q=-0.0 size=N/A time=00:15:18.54 bitrate=N/A speed=18.5x    frame=22260 fps=445 q=-0.0 size=N/A time=00:15:27.50 bitrate=N/A speed=18.5x    frame=22416 fps=443 q=-0.0 size=N/A time=00:15:34.00 bitrate=N/A speed=18.5x    frame=22550 fps=441 q=-0.0 size=N/A time=00:15:39.58 bitrate=N/A speed=18.4x    frame=22752 fps=441 q=-0.0 size=N/A time=00:15:48.00 bitrate=N/A speed=18.4x    frame=22976 fps=441 q=-0.0 size=N/A time=00:15:57.33 bitrate=N/A speed=18.4x    frame=23192 fps=441 q=-0.0 size=N/A time=00:16:06.33 bitrate=N/A speed=18.4x    frame=23385 fps=440 q=-0.0 size=N/A time=00:16:14.37 bitrate=N/A speed=18.3x    frame=23604 fps=440 q=-0.0 size=N/A time=00:16:23.50 bitrate=N/A speed=18.3x    frame=23800 fps=439 q=-0.0 size=N/A time=00:16:31.66 bitrate=N/A speed=18.3x    frame=23998 fps=439 q=-0.0 size=N/A time=00:16:39.91 bitrate=N/A speed=18.3x    frame=24215 fps=439 q=-0.0 size=N/A time=00:16:48.95 bitrate=N/A speed=18.3x    [Parsed_ssim_10 @ 000002193540f080] SSIM Y:0.994122 (22.307633) U:0.995823 (23.791347) V:0.996159 (24.155756) All:0.994745 (22.794243)
[out#0/null @ 000002192e234a80] video:10430KiB audio:189656KiB subtitle:0KiB other streams:0KiB global headers:0KiB muxing overhead: unknown
frame=24273 fps=439 q=-0.0 Lsize=N/A time=00:16:51.37 bitrate=N/A speed=18.3x    
